<?xml version="1.0" standalone="no"?>
<!DOCTYPE svg PUBLIC "-//W3C//DTD SVG 20010904//EN"
 "http://www.w3.org/TR/2001/REC-SVG-20010904/DTD/svg10.dtd">
<svg version="1.0" xmlns="http://www.w3.org/2000/svg"
 width="900.000000pt" height="900.000000pt" viewBox="0 0 900.000000 900.000000"
 preserveAspectRatio="xMidYMid meet">

<g transform="translate(0.000000,900.000000) scale(0.100000,-0.100000)"
fill="#000000" stroke="none">
<path d="M4448 8895 c-2 -1 -84 -5 -183 -8 -99 -4 -243 -16 -320 -27 -77 -12
-169 -26 -205 -31 -267 -39 -695 -168 -1005 -302 -356 -153 -748 -398 -1075
-671 -84 -70 -376 -355 -461 -451 -384 -433 -709 -1001 -881 -1545 -113 -354
-201 -823 -207 -1094 -1 -49 -4 -93 -7 -98 -3 -4 1974 -8 4393 -8 l4398 0 -7
128 c-4 70 -12 168 -18 217 -11 96 -58 389 -66 418 -5 16 -56 17 -895 17
l-889 0 0 159 0 159 313 -2 312 -1 0 155 0 155 -627 3 -628 2 0 155 0 155 470
0 470 0 0 160 0 160 -155 0 -155 0 0 155 0 155 -315 0 -315 0 0 155 0 154 157
3 157 3 0 155 1 155 -317 3 -318 2 0 155 0 155 160 0 160 0 0 258 0 259 -117
50 c-154 67 -369 149 -413 158 -19 4 -57 16 -83 26 -87 35 -439 118 -562 133
-27 4 -88 13 -135 21 -128 21 -617 52 -632 40z m-1347 -956 c255 -33 545 -180
728 -368 175 -182 302 -431 337 -666 18 -118 18 -307 -1 -420 -15 -93 -69
-265 -107 -338 -132 -259 -335 -459 -588 -578 -136 -65 -188 -81 -319 -103
-139 -23 -230 -28 -331 -16 -202 22 -315 56 -485 143 -321 166 -566 496 -637
857 -110 563 163 1115 677 1373 108 53 259 99 405 121 56 8 242 5 321 -5z"/>
<path d="M108 4293 c17 -300 62 -606 127 -863 156 -622 441 -1192 854 -1705
176 -218 485 -520 721 -703 96 -75 389 -270 510 -339 193 -111 434 -225 600
-283 36 -13 70 -27 75 -31 39 -27 503 -155 671 -184 50 -8 100 -17 113 -20 79
-15 323 -45 414 -50 231 -15 581 -7 767 15 112 14 411 60 445 69 l30 7 3 107
3 107 -156 0 -155 0 0 155 0 155 470 0 469 0 3 158 3 157 158 3 157 3 0 154 0
155 470 0 470 0 0 160 0 160 160 0 161 0 -3 153 -3 152 -315 3 -315 2 3 155 3
155 -476 0 -475 0 0 160 0 160 319 0 318 0 -1 155 -1 155 628 0 628 0 -3 156
-3 157 -312 1 -313 1 0 158 0 157 734 0 c691 0 735 1 740 18 24 78 82 524 85
656 1 50 5 94 7 98 3 4 -1974 8 -4393 8 l-4398 0 3 -47z"/>
</g>
</svg>
